<?xml version="1.0" encoding="UTF-8"?>
<svg id="Ebene_2" data-name="Ebene 2" xmlns="http://www.w3.org/2000/svg" viewBox="0 0 83.49 79.52">
  <g id="Ebene_1-2" data-name="Ebene 1">
    <g id="Instagram">
      <path d="M17.37,1.24c7.82-1.58,41.47-1.61,49.6-.32,7.89,1.25,15,9.59,15.93,17.49,1,8.48.99,43.82-2.14,49.94-2.75,5.39-9.47,9.78-15.5,10.49-9.66,1.14-43.95,1.08-51.84-2.09-8.31-3.33-11.31-10.79-12.26-19.3C-.66,41.21-3.04,5.38,17.37,1.24ZM19.2,8.64c-14.11,3.13-11.91,35.34-10.61,46.95,1.05,9.37,3.86,14.67,13.88,15.83,7.39.85,41.73.89,46.55-1.81,2.24-1.26,5.84-5.73,6.37-8.49,1.18-6.2,1.03-34.18.14-40.91-.66-5-5.13-10.94-10.35-11.93-6.06-1.15-40.02-.96-45.98.36Z"/>
      <path d="M35.9,21.64c31.06-7.08,35.05,37.83,5.17,36.9-21.95-.68-22.83-32.87-5.17-36.9ZM39.66,29c-10.01,2.1-11.97,16.23-2.78,20.57,19.38,9.17,22.88-24.78,2.78-20.57Z"/>
      <path d="M67.83,22.93c-2.08,2.94-10.4,2.02-10.57-4.13-.3-10.51,15.84-3.34,10.57,4.13Z"/>
    </g>
  </g>
</svg>