<?xml version="1.0" encoding="UTF-8"?>
<svg id="Ebene_2" data-name="Ebene 2" xmlns="http://www.w3.org/2000/svg" viewBox="0 0 74.4 95.18">
  <g id="Ebene_1-2" data-name="Ebene 1">
    <path id="Pinterest" d="M30.32,63.12c.03,6.12-1.78,11.78-3.97,17.4-.73,1.87-7.84,17.65-10.89,14.16-4.3-16.13,6.68-33.63,7.33-47.59.19-4.2-1.78-7.38-1.79-10.91-.03-10.54,7.45-18.17,17.77-12.17,5.96,8.48-11.11,28.62.83,34.53,18.02,8.92,33.36-43.47,4.72-47.49-19.16-2.69-36.66,9.45-31.8,29.92.8,3.36,3.88,6.34,4.27,8.58,1.93,11.1-10.91,5.15-14.48-3.94C-11.59,10.26,40.83-15.05,65.56,10.22c23.14,23.65-2.83,75.77-35.24,52.9Z"/>
  </g>
</svg>