<?xml version="1.0" encoding="UTF-8"?>
<svg id="Ebene_2" data-name="Ebene 2" xmlns="http://www.w3.org/2000/svg" viewBox="0 0 84.55 75.47">
  <g id="Ebene_1-2" data-name="Ebene 1">
    <path id="Reddit" d="M62.12,9.54c-7.81-5.54-16.6,1.39-14.39,11.21.24,1.06,18.31,8.01,20.04,8.25,4.49.62,9.23-3.65,13.6,1.71,7.06,8.67.37,10.83-1.46,16.8s.27,7.94-4.2,14.36c-13.18,18.99-58.91,18.45-68.53-3.89-1.63-3.79-1.45-7.11-2.57-10.42-2.13-6.33-8.43-7.53-1.35-15.44,5.72-6.39,8.51-1.78,13.44-3.1,8-2.13,16.13-7.59,25.36-7.31l3.98-20.17c4.7-1.29,9.93,2.09,13.99,1.95,5.63-.2,6.72-5.72,13.33-2.48,9.66,4.73.68,17.75-6.45,14.04-2.89-1.5-3.36-4.5-4.79-5.52Z"/>
  </g>
</svg>