<?xml version="1.0" encoding="UTF-8"?>
<svg id="Ebene_2" data-name="Ebene 2" xmlns="http://www.w3.org/2000/svg" viewBox="0 0 76.38 76.48">
  <g id="Ebene_1-2" data-name="Ebene 1">
    <path id="Snapchat" d="M57.83,30.09c24.41-3.31,1.06,6.56,2.09,13.51l16.46,17.14c-6.11.02-9.93,6.91-11.6,7.84-1.07.6-21.76,7.29-23.2,7.54-10.35,1.77-13.73-3.54-22.27-6.63-2.6-.94-6.15.25-8.41-.41-1.83-.53-4.82-8.7-10.64-7.45-.51-2.57-.38-2.37,1.18-3.84,4.09-3.86,12.22-7.24,13.76-13.85.64-6.43-21.74-18.15,1.75-13.85-6.44-39.64,48.58-40.6,40.87,0Z"/>
  </g>
</svg>