<?xml version="1.0" encoding="UTF-8"?>
<svg id="Ebene_2" data-name="Ebene 2" xmlns="http://www.w3.org/2000/svg" viewBox="0 0 70.56 80.07">
  <g id="Ebene_1-2" data-name="Ebene 1">
    <g id="Twitch">
      <path d="M70.56,0v41.78c-7.04,4.74-16.74,19.75-23.1,23.32-5.19,2.91-9.47.71-14.01,2.7-3.35,1.47-8.37,9.68-12.12,12.03-5.4,2.26-1.52-11.76-2.75-12.99H0S0,17.64,0,17.64C0,15.95,14.6,0,15.78,0h54.77ZM64.99,5.57H18.57v44.56h13.01s.91,9.27.91,9.27c5.95-10.99,14.27-7.13,21.34-10.22.79-.34,11.16-10.33,11.16-11.12V5.57Z"/>
      <rect x="50.14" y="16.7" width="7.41" height="16.73"/>
      <rect x="34.06" y="16.61" width="7.41" height="16.73"/>
    </g>
  </g>
</svg>