<?xml version="1.0" encoding="UTF-8"?>
<svg id="Ebene_2" data-name="Ebene 2" xmlns="http://www.w3.org/2000/svg" viewBox="0 0 71.15 59.77">
  <g id="Ebene_1-2" data-name="Ebene 1">
    <path id="Twitter" d="M70.99,2.02c1.18,6.99-4.23,11.04-5.15,14.34-1.81,6.52-1.02,12.61-4.34,19.79-8.1,17.56-28.23,26.13-46.71,22.97-3.43-.59-17.47-5.31-14.35-8.84,4.06,3.3,16.46,1.38,18.53-2.81,1.56-3.15-5.67-3.94-8.23-6.59-.71-.74-3.15-5.13-2.89-5.44l3.7-1.85c-3.88.15-8-5.97-8.43-9.22-.33-2.46,2.55-3.81,2.48-6.24-.1-3.71-4.32-8.79-1.45-14.26,6.86,1.94,11,8.15,18.02,10.74,4.47,1.65,8.7,2.77,13.53,2.27C33.56,6.29,43.13-1.26,53.19.17c6.07.86,9.68,6.19,17.79,1.84Z"/>
  </g>
</svg>