<?xml version="1.0" encoding="UTF-8"?>
<svg id="Ebene_2" data-name="Ebene 2" xmlns="http://www.w3.org/2000/svg" viewBox="0 0 86.13 83.28">
  <g id="Ebene_1-2" data-name="Ebene 1">
    <g id="Whatsapp">
      <path d="M.08,83.28c-1.07-.79,8.58-17.14,8.58-19.47,0-2.01-3.82-9.01-4.63-13.29C-2.28,17.29,27.88-8.34,59.49,2.53c28.21,9.7,35.85,49.52,14.02,69.71C52.18,91.96,25.65,77.1.08,83.28ZM14.94,72.14c19.4-2.65,36.44,9.23,52.98-7.34,24.21-24.25-1.94-66.4-36.25-52.96-10.1,3.95-19.42,17.58-20,28.29-.68,12.52,12.19,21,3.26,32.01Z"/>
      <path d="M63.22,48.01l-1.08,11.35c-16.08,6.62-35.72-8.83-36.21-25.24s13.68-14.73,13.31-1.83c-.16,5.7-7.77,9.4,2.91,15.56,5.63,3.25,14.22-1.42,21.07.16Z"/>
    </g>
  </g>
</svg>